<svg xmlns="http://www.w3.org/2000/svg" width="23.999" height="24" viewBox="0 0 23.999 24">
  <defs>
    <style>
      .cls-1 {
        fill: #fff;
      }
    </style>
  </defs>
  <path id="Subtraction_49" data-name="Subtraction 49" class="cls-1" d="M539.93-224.413a11.921,11.921,0,0,1-8.485-3.515,11.923,11.923,0,0,1-3.514-8.486,11.921,11.921,0,0,1,3.514-8.485,11.921,11.921,0,0,1,8.485-3.514,11.921,11.921,0,0,1,8.485,3.514,11.921,11.921,0,0,1,3.514,8.485,11.923,11.923,0,0,1-3.514,8.486A11.921,11.921,0,0,1,539.93-224.413Zm3.464-11.264a2.243,2.243,0,0,0-2.336,2.4,2.242,2.242,0,0,0,2.336,2.4,2.235,2.235,0,0,0,2.319-2.4A2.235,2.235,0,0,0,543.394-235.678Zm-.561-6.56-6.48,11.168h1.44l6.48-11.168h-1.44Zm-5.567-.175a2.234,2.234,0,0,0-2.336,2.383,2.243,2.243,0,0,0,2.336,2.4,2.242,2.242,0,0,0,2.336-2.4A2.234,2.234,0,0,0,537.266-242.413Zm6.112,10.607c-.753,0-1.184-.536-1.184-1.472s.432-1.489,1.184-1.489,1.184.543,1.184,1.489S544.13-231.806,543.378-231.806Zm-6.112-6.719c-.742,0-1.168-.548-1.168-1.5s.415-1.488,1.168-1.488,1.184.542,1.184,1.488S538.007-238.525,537.266-238.525Z" transform="translate(-527.93 248.413)"/>
</svg>
