<svg xmlns="http://www.w3.org/2000/svg" width="23" height="23" viewBox="0 0 23 23">
  <defs>
    <style>
      .cls-1 {
        fill: #fff;
      }
    </style>
  </defs>
  <path id="Subtraction_50" data-name="Subtraction 50" class="cls-1" d="M239.5-227a11.425,11.425,0,0,1-8.132-3.368A11.425,11.425,0,0,1,228-238.5a11.425,11.425,0,0,1,3.368-8.132A11.425,11.425,0,0,1,239.5-250a11.425,11.425,0,0,1,8.132,3.368A11.425,11.425,0,0,1,251-238.5a11.425,11.425,0,0,1-3.368,8.132A11.425,11.425,0,0,1,239.5-227Zm-3.281-11.439.008.971,4.141,4.842h1.773v-.095l-3.851-4.492.013,0a4.45,4.45,0,0,0,2.659-.7,2.8,2.8,0,0,0,1.1-2.088h1.188l.359-1.227h-1.57a3.18,3.18,0,0,0-.633-1.546h1.844l.359-1.227h-7.226l-.367,1.227h2.2a2.128,2.128,0,0,1,2.3,1.546H236.36L236-240h4.523a1.829,1.829,0,0,1-.773,1.137,2.8,2.8,0,0,1-1.586.426h-1.946Z" transform="translate(-228 250)"/>
</svg>
